# This file uses centimeters as units for non-parametric coordinates.

mtllib Background.mtl
g default
v -0.154543 0.490332 0.000000
v -0.293913 0.496536 0.000000
v -0.404518 0.506197 0.000000
v -0.475531 0.518372 0.000000
v -0.500000 0.531868 0.000000
v -0.475531 0.531868 0.154543
v -0.404518 0.531868 0.293913
v -0.293913 0.531868 0.404518
v -0.154543 0.531868 0.475531
v 0.000000 0.531868 0.500000
v 0.000000 0.518372 0.475531
v 0.000000 0.506197 0.404518
v 0.000000 0.496536 0.293913
v 0.000000 0.490332 0.154543
v 0.000000 0.488195 0.000000
v 0.475531 0.518372 0.000000
v 0.404518 0.506197 0.000000
v 0.293913 0.496536 0.000000
v 0.154543 0.490332 0.000000
v 0.154543 0.531868 0.475531
v 0.293913 0.531868 0.404518
v 0.404518 0.531868 0.293913
v 0.475531 0.531868 0.154543
v 0.500000 0.531868 0.000000
v 0.000000 0.490332 -0.154543
v 0.000000 0.496536 -0.293913
v 0.000000 0.506197 -0.404518
v 0.000000 0.518372 -0.475531
v 0.000000 0.531868 -0.500000
v -0.154543 0.531868 -0.475531
v -0.293913 0.531868 -0.404518
v -0.404518 0.531868 -0.293913
v -0.475531 0.531868 -0.154543
v 0.475531 0.531868 -0.154543
v 0.404518 0.531868 -0.293913
v 0.293913 0.531868 -0.404518
v 0.154543 0.531868 -0.475531
v 0.000000 0.575549 0.629049
v -0.194430 0.575549 0.598264
v -0.369772 0.575549 0.508923
v -0.508923 0.575549 0.369772
v -0.598264 0.575549 0.194430
v -0.629049 0.575549 0.000000
v 0.629049 0.575549 0.000000
v 0.598264 0.575549 0.194430
v 0.508923 0.575549 0.369772
v 0.369772 0.575549 0.508923
v 0.194430 0.575549 0.598264
v -0.598264 0.575549 -0.194430
v -0.508923 0.575549 -0.369772
v -0.369772 0.575549 -0.508923
v -0.194430 0.575549 -0.598264
v 0.000000 0.575549 -0.629049
v 0.194430 0.575549 -0.598264
v 0.369772 0.575549 -0.508923
v 0.508923 0.575549 -0.369772
v 0.598264 0.575549 -0.194430
v -0.144336 0.492001 0.144336
v -0.281760 0.497393 0.120287
v -0.394703 0.507259 0.120287
v -0.456428 0.519264 0.144336
v -0.394703 0.521364 0.281760
v -0.281760 0.521364 0.394703
v -0.144336 0.519264 0.456428
v -0.120287 0.507259 0.394703
v -0.120287 0.497393 0.281760
v -0.246959 0.500652 0.246959
v -0.357399 0.510299 0.246959
v -0.246959 0.510299 0.357399
v 0.456428 0.519264 0.144336
v 0.394703 0.507259 0.120287
v 0.281760 0.497393 0.120287
v 0.144336 0.492001 0.144336
v 0.120287 0.497393 0.281760
v 0.120287 0.507259 0.394703
v 0.144336 0.519264 0.456428
v 0.281760 0.521364 0.394703
v 0.394703 0.521364 0.281760
v 0.357399 0.510299 0.246959
v 0.246959 0.500652 0.246959
v 0.246959 0.510299 0.357399
v -0.456428 0.519264 -0.144336
v -0.394703 0.507259 -0.120287
v -0.281760 0.497393 -0.120287
v -0.144336 0.492001 -0.144336
v -0.120287 0.497393 -0.281760
v -0.120287 0.507259 -0.394703
v -0.144336 0.519264 -0.456428
v -0.281760 0.521364 -0.394703
v -0.394703 0.521364 -0.281760
v -0.357399 0.510299 -0.246959
v -0.246959 0.500652 -0.246959
v -0.246959 0.510299 -0.357399
v 0.144336 0.492001 -0.144336
v 0.281760 0.497393 -0.120287
v 0.394703 0.507259 -0.120287
v 0.456428 0.519264 -0.144336
v 0.394703 0.521364 -0.281760
v 0.281760 0.521364 -0.394703
v 0.144336 0.519264 -0.456428
v 0.120287 0.507259 -0.394703
v 0.120287 0.497393 -0.281760
v 0.246959 0.500652 -0.246959
v 0.357399 0.510299 -0.246959
v 0.246959 0.510299 -0.357399
vt 0.060403 0.215421
vt 0.134006 0.215421
vt 0.134006 0.479501
vt 0.060403 0.479501
vt 0.139396 0.139222
vt 0.066822 0.151922
vt 0.215621 0.215421
vt 0.215621 0.479501
vt 0.001992 0.215421
vt 0.001992 0.479501
vt 0.215621 0.133832
vt 0.007175 0.151922
vt 0.152097 0.066647
vt 0.085200 0.085026
vt 0.297237 0.215421
vt 0.297237 0.479501
vt 0.291846 0.139222
vt 0.215621 0.060229
vt 0.026876 0.085026
vt 0.085200 0.026702
vt 0.152097 0.007001
vt 0.370839 0.215421
vt 0.370839 0.479501
vt 0.279146 0.066647
vt 0.364421 0.151922
vt 0.215621 0.001818
vt 0.429251 0.215421
vt 0.429251 0.479501
vt 0.279146 0.007001
vt 0.346042 0.085026
vt 0.424068 0.151922
vt 0.346042 0.026702
vt 0.404367 0.085026
vt 0.650433 0.215421
vt 0.732048 0.215421
vt 0.732048 0.479501
vt 0.650433 0.479501
vt 0.650433 0.133832
vt 0.726658 0.139222
vt 0.805651 0.215421
vt 0.805651 0.479501
vt 0.568817 0.215421
vt 0.568817 0.479501
vt 0.574208 0.139222
vt 0.650433 0.060229
vt 0.713957 0.066647
vt 0.799232 0.151922
vt 0.864062 0.215421
vt 0.864062 0.479501
vt 0.495215 0.215421
vt 0.495215 0.479501
vt 0.501633 0.151922
vt 0.586908 0.066647
vt 0.650433 0.001818
vt 0.713957 0.007001
vt 0.780854 0.085026
vt 0.858879 0.151922
vt 0.436803 0.215421
vt 0.436803 0.479501
vt 0.441986 0.151922
vt 0.520012 0.085026
vt 0.586908 0.007001
vt 0.780854 0.026702
vt 0.839178 0.085026
vt 0.461687 0.085026
vt 0.520012 0.026702
vt 0.842790 0.615507
vt 0.842790 0.697122
vt 0.761175 0.697122
vt 0.766565 0.620897
vt 0.924406 0.697122
vt 0.919015 0.620897
vt 0.842790 0.778738
vt 0.766565 0.773347
vt 0.687572 0.697122
vt 0.693990 0.633597
vt 0.779265 0.548322
vt 0.842790 0.541904
vt 0.919015 0.773347
vt 0.906315 0.548322
vt 0.991590 0.633597
vt 0.998008 0.697122
vt 0.842790 0.852340
vt 0.779265 0.845922
vt 0.693990 0.760647
vt 0.712369 0.566701
vt 0.779265 0.488676
vt 0.842790 0.483493
vt 0.991590 0.760647
vt 0.906315 0.845922
vt 0.906315 0.488676
vt 0.973211 0.566701
vt 0.842790 0.910752
vt 0.779265 0.905568
vt 0.712369 0.827543
vt 0.712369 0.508377
vt 0.973211 0.827543
vt 0.906315 0.905568
vt 0.973211 0.508377
vt 0.712369 0.885868
vt 0.973211 0.885868
vt 0.526219 0.747573
vt 0.444603 0.747573
vt 0.444603 0.483493
vt 0.526219 0.483493
vt 0.526219 0.829162
vt 0.449994 0.823772
vt 0.371001 0.747573
vt 0.371001 0.483493
vt 0.607834 0.747573
vt 0.607834 0.483493
vt 0.602444 0.823772
vt 0.526219 0.902765
vt 0.462694 0.896347
vt 0.377419 0.811072
vt 0.681437 0.747573
vt 0.681437 0.483493
vt 0.675018 0.811072
vt 0.589743 0.896347
vt 0.395798 0.877968
vt 0.656640 0.877968
vt 0.054429 0.638684
vt 0.128032 0.638684
vt 0.128032 0.902765
vt 0.054429 0.902765
vt 0.133422 0.562486
vt 0.060847 0.575186
vt 0.209647 0.638684
vt 0.209647 0.902765
vt 0.209647 0.557095
vt 0.146123 0.489911
vt 0.079226 0.508290
vt 0.291263 0.638684
vt 0.291263 0.902765
vt 0.285872 0.562486
vt 0.209647 0.483493
vt 0.364865 0.638684
vt 0.364865 0.902765
vt 0.273172 0.489911
vt 0.358447 0.575186
vt 0.340068 0.508290
vn 0.054181 0.936899 -0.345375
vn 0.106015 0.938100 -0.329740
vn 0.099060 0.947211 -0.304925
vn 0.050699 0.945990 -0.320207
vn 0.203430 0.937936 -0.280878
vn 0.188449 0.947212 -0.259377
vn 0.280878 0.937936 -0.203430
vn 0.259377 0.947212 -0.188449
vn 0.329740 0.938101 -0.106015
vn 0.304925 0.947211 -0.099060
vn 0.345375 0.936899 -0.054181
vn 0.320207 0.945990 -0.050699
vn -0.345375 0.936899 -0.054181
vn -0.329740 0.938101 -0.106015
vn -0.304925 0.947211 -0.099060
vn -0.320207 0.945990 -0.050699
vn -0.280877 0.937936 -0.203430
vn -0.259377 0.947212 -0.188449
vn -0.203430 0.937936 -0.280878
vn -0.188449 0.947212 -0.259377
vn -0.106015 0.938100 -0.329740
vn -0.099060 0.947211 -0.304925
vn -0.054181 0.936899 -0.345375
vn -0.050699 0.945990 -0.320207
vn 0.345375 0.936899 0.054181
vn 0.329740 0.938101 0.106015
vn 0.304925 0.947211 0.099060
vn 0.320207 0.945990 0.050699
vn 0.280877 0.937936 0.203430
vn 0.259377 0.947212 0.188449
vn 0.203430 0.937936 0.280878
vn 0.188449 0.947212 0.259377
vn 0.106015 0.938100 0.329740
vn 0.099060 0.947211 0.304925
vn 0.054181 0.936899 0.345375
vn 0.050699 0.945990 0.320207
vn -0.054181 0.936899 0.345375
vn -0.106015 0.938100 0.329740
vn -0.099060 0.947211 0.304925
vn -0.050699 0.945990 0.320207
vn -0.203430 0.937936 0.280878
vn -0.188449 0.947212 0.259377
vn -0.280878 0.937936 0.203430
vn -0.259377 0.947212 0.188449
vn -0.329740 0.938101 0.106015
vn -0.304925 0.947211 0.099060
vn -0.345375 0.936899 0.054181
vn -0.320207 0.945990 0.050699
vn 0.013178 0.999553 -0.026823
vn 0.013183 0.999826 -0.013183
vn 0.026823 0.999553 -0.013178
vn 0.026636 0.999290 -0.026636
vn 0.062216 0.997959 -0.014360
vn 0.062322 0.997650 -0.028457
vn 0.121469 0.992393 -0.020009
vn 0.121158 0.991845 -0.039561
vn 0.273241 0.961061 -0.041239
vn 0.274211 0.958022 -0.083672
vn 0.254084 0.949961 -0.181701
vn 0.181701 0.949961 -0.254084
vn 0.083672 0.958022 -0.274211
vn 0.041239 0.961061 -0.273241
vn 0.020009 0.992393 -0.121469
vn 0.039561 0.991845 -0.121158
vn 0.014360 0.997959 -0.062216
vn 0.028457 0.997650 -0.062322
vn 0.059450 0.996459 -0.059450
vn 0.126394 0.988217 -0.086325
vn 0.086325 0.988217 -0.126394
vn -0.273241 0.961061 -0.041239
vn -0.274211 0.958022 -0.083672
vn -0.121469 0.992394 -0.020009
vn -0.121158 0.991845 -0.039561
vn -0.062216 0.997959 -0.014360
vn -0.062322 0.997650 -0.028457
vn -0.026823 0.999553 -0.013178
vn -0.026636 0.999290 -0.026636
vn -0.013183 0.999826 -0.013183
vn -0.013178 0.999553 -0.026823
vn -0.014360 0.997959 -0.062216
vn -0.028457 0.997650 -0.062322
vn -0.020009 0.992393 -0.121469
vn -0.039561 0.991845 -0.121158
vn -0.041239 0.961061 -0.273241
vn -0.083672 0.958022 -0.274211
vn -0.181701 0.949961 -0.254084
vn -0.254084 0.949961 -0.181701
vn -0.126394 0.988217 -0.086325
vn -0.059450 0.996459 -0.059450
vn -0.086325 0.988217 -0.126394
vn 0.273241 0.961061 0.041239
vn 0.274211 0.958022 0.083672
vn 0.121469 0.992394 0.020009
vn 0.121158 0.991845 0.039561
vn 0.062216 0.997959 0.014360
vn 0.062322 0.997650 0.028457
vn 0.026823 0.999553 0.013178
vn 0.026636 0.999290 0.026636
vn 0.013183 0.999826 0.013183
vn 0.013178 0.999553 0.026823
vn 0.014360 0.997959 0.062216
vn 0.028457 0.997650 0.062322
vn 0.020009 0.992393 0.121469
vn 0.039561 0.991845 0.121158
vn 0.041239 0.961061 0.273241
vn 0.083672 0.958022 0.274211
vn 0.181701 0.949961 0.254084
vn 0.254084 0.949961 0.181701
vn 0.126394 0.988217 0.086325
vn 0.059450 0.996459 0.059450
vn 0.086325 0.988217 0.126394
vn -0.013178 0.999553 0.026823
vn -0.013183 0.999826 0.013183
vn -0.026823 0.999553 0.013178
vn -0.026636 0.999290 0.026636
vn -0.062216 0.997959 0.014360
vn -0.062322 0.997650 0.028457
vn -0.121469 0.992393 0.020009
vn -0.121158 0.991845 0.039561
vn -0.273241 0.961061 0.041239
vn -0.274211 0.958022 0.083672
vn -0.254084 0.949961 0.181701
vn -0.181701 0.949961 0.254084
vn -0.083672 0.958022 0.274211
vn -0.041239 0.961061 0.273241
vn -0.020009 0.992393 0.121469
vn -0.039561 0.991845 0.121158
vn -0.014360 0.997959 0.062216
vn -0.028457 0.997650 0.062322
vn -0.059450 0.996459 0.059450
vn -0.126394 0.988217 0.086325
vn -0.086325 0.988217 0.126394
s 1
g pCube2
usemtl initialShadingGroup
f 10/102/1 9/103/2 39/104/3 38/105/4
f 9/103/2 8/108/5 40/109/6 39/104/3
f 8/9/5 7/1/7 41/4/8 40/10/6
f 7/1/7 6/2/9 42/3/10 41/4/8
f 6/2/9 5/7/11 43/8/12 42/3/10
s 2
f 24/34/13 23/35/14 45/36/15 44/37/16
f 23/35/14 22/40/17 46/41/18 45/36/15
f 22/40/17 21/48/19 47/49/20 46/41/18
f 21/116/19 20/110/21 48/111/22 47/117/20
f 20/110/21 10/102/23 38/105/24 48/111/22
s 3
f 5/7/25 33/15/26 49/16/27 43/8/28
f 33/15/26 32/22/29 50/23/30 49/16/27
f 32/22/29 31/27/31 51/28/32 50/23/30
f 31/122/31 30/123/33 52/124/34 51/125/32
f 30/123/33 29/128/35 53/129/36 52/124/34
s 4
f 29/128/37 37/133/38 54/134/39 53/129/40
f 37/133/38 36/137/41 55/138/42 54/134/39
f 36/58/41 35/50/43 56/51/44 55/59/42
f 35/50/43 34/42/45 57/43/46 56/51/44
f 34/42/45 24/34/47 44/37/48 57/43/46
s 1
f 14/67/49 15/68/50 1/69/51 58/70/52
f 58/70/52 1/69/51 2/75/53 59/76/54
f 59/21/54 2/26/53 3/18/55 60/13/56
f 60/13/56 3/18/55 4/11/57 61/5/58
f 4/11/57 5/7/11 6/2/9 61/5/58
f 61/5/58 6/2/9 7/1/7 62/6/59
f 62/6/59 7/1/7 8/9/5 63/12/60
f 63/115/60 8/108/5 9/103/2 64/107/61
f 9/103/2 10/102/1 11/106/62 64/107/61
f 64/107/61 11/106/62 12/113/63 65/114/64
f 65/87/64 12/88/63 13/78/65 66/77/66
f 66/77/66 13/78/65 14/67/49 58/70/52
f 66/77/66 58/70/52 59/76/54 67/86/67
f 67/20/67 59/21/54 60/13/56 68/14/68
f 60/13/56 61/5/58 62/6/59 68/14/68
f 68/14/68 62/6/59 63/12/60 69/19/69
f 63/115/60 64/107/61 65/114/64 69/120/69
f 69/96/69 65/87/64 66/77/66 67/86/67
f 67/20/67 68/14/68 69/19/69
s 2
f 23/35/14 24/34/13 16/38/70 70/39/71
f 70/39/71 16/38/70 17/45/72 71/46/73
f 71/46/73 17/45/72 18/54/74 72/55/75
f 72/81/75 18/82/74 19/71/76 73/72/77
f 19/71/76 15/68/78 14/67/79 73/72/77
f 73/72/77 14/67/79 13/78/80 74/80/81
f 74/80/81 13/78/80 12/88/82 75/91/83
f 75/119/83 12/113/82 11/106/84 76/112/85
f 11/106/84 10/102/23 20/110/21 76/112/85
f 76/112/85 20/110/21 21/116/19 77/118/86
f 77/57/86 21/48/19 22/40/17 78/47/87
f 78/47/87 22/40/17 23/35/14 70/39/71
f 78/47/87 70/39/71 71/46/73 79/56/88
f 79/56/88 71/46/73 72/55/75 80/63/89
f 72/81/75 73/72/77 74/80/81 80/92/89
f 80/92/89 74/80/81 75/91/83 81/99/90
f 75/119/83 76/112/85 77/118/86 81/121/90
f 81/64/90 77/57/86 78/47/87 79/56/88
f 79/56/88 80/63/89 81/64/90
s 3
f 33/15/26 5/7/25 4/11/91 82/17/92
f 82/17/92 4/11/91 3/18/93 83/24/94
f 83/24/94 3/18/93 2/26/95 84/29/96
f 84/85/96 2/75/95 1/69/97 85/74/98
f 1/69/97 15/68/99 25/73/100 85/74/98
f 85/74/98 25/73/100 26/83/101 86/84/102
f 86/84/102 26/83/101 27/93/103 87/94/104
f 87/131/104 27/136/103 28/130/105 88/126/106
f 28/130/105 29/128/35 30/123/33 88/126/106
f 88/126/106 30/123/33 31/122/31 89/127/107
f 89/31/107 31/27/31 32/22/29 90/25/108
f 90/25/108 32/22/29 33/15/26 82/17/92
f 90/25/108 82/17/92 83/24/94 91/30/109
f 91/30/109 83/24/94 84/29/96 92/32/110
f 84/85/96 85/74/98 86/84/102 92/95/110
f 92/95/110 86/84/102 87/94/104 93/100/111
f 87/131/104 88/126/106 89/127/107 93/132/111
f 93/33/111 89/31/107 90/25/108 91/30/109
f 91/30/109 92/32/110 93/33/111
s 4
f 25/73/112 15/68/113 19/71/114 94/79/115
f 94/79/115 19/71/114 18/82/116 95/89/117
f 95/62/117 18/54/116 17/45/118 96/53/119
f 96/53/119 17/45/118 16/38/120 97/44/121
f 16/38/120 24/34/47 34/42/45 97/44/121
f 97/44/121 34/42/45 35/50/43 98/52/122
f 98/52/122 35/50/43 36/58/41 99/60/123
f 99/140/123 36/137/41 37/133/38 100/135/124
f 37/133/38 29/128/37 28/130/125 100/135/124
f 100/135/124 28/130/125 27/136/126 101/139/127
f 101/98/127 27/93/126 26/83/128 102/90/129
f 102/90/129 26/83/128 25/73/112 94/79/115
f 102/90/129 94/79/115 95/89/117 103/97/130
f 103/66/130 95/62/117 96/53/119 104/61/131
f 96/53/119 97/44/121 98/52/122 104/61/131
f 104/61/131 98/52/122 99/60/123 105/65/132
f 99/140/123 100/135/124 101/139/127 105/141/132
f 105/101/132 101/98/127 102/90/129 103/97/130
f 103/66/130 104/61/131 105/65/132
