# This file uses centimeters as units for non-parametric coordinates.

mtllib BackGround.mtl
g default
v 7.746675 0.070066 1.695157
v 7.274214 0.310797 1.695157
v 6.899266 0.685744 1.695157
v 6.658535 1.158206 1.695157
v 6.575584 1.681934 1.695157
v 6.658535 1.681934 2.218885
v 6.899266 1.681934 2.691346
v 7.274214 1.681934 3.066294
v 7.746675 1.681934 3.307025
v 8.270403 1.681934 3.389976
v 8.270403 1.158206 3.307025
v 8.270403 0.685744 3.066294
v 8.270403 0.310797 2.691346
v 8.270403 0.070066 2.218885
v 8.270403 -0.012885 1.695157
v 13.272585 1.158206 1.695157
v 13.031853 0.685744 1.695157
v 12.656906 0.310797 1.695157
v 12.184444 0.070066 1.695157
v 11.660717 -0.012885 1.695157
v 11.660717 0.070066 2.218885
v 11.660717 0.310797 2.691346
v 11.660717 0.685744 3.066294
v 11.660717 1.158206 3.307025
v 11.660717 1.681934 3.389976
v 12.184444 1.681934 3.307025
v 12.656906 1.681934 3.066294
v 13.031853 1.681934 2.691346
v 13.272585 1.681934 2.218885
v 13.355535 1.681934 1.695157
v 6.658535 1.158206 -1.695157
v 6.899266 0.685744 -1.695157
v 7.274214 0.310797 -1.695157
v 7.746675 0.070066 -1.695157
v 8.270403 -0.012885 -1.695157
v 8.270403 0.070066 -2.218885
v 8.270403 0.310797 -2.691346
v 8.270403 0.685744 -3.066294
v 8.270403 1.158206 -3.307025
v 8.270403 1.681934 -3.389976
v 7.746675 1.681934 -3.307025
v 7.274214 1.681934 -3.066294
v 6.899266 1.681934 -2.691346
v 6.658535 1.681934 -2.218885
v 6.575584 1.681934 -1.695157
v 12.184444 0.070066 -1.695157
v 12.656906 0.310797 -1.695157
v 13.031853 0.685744 -1.695157
v 13.272585 1.158206 -1.695157
v 13.355535 1.681934 -1.695157
v 13.272585 1.681934 -2.218885
v 13.031853 1.681934 -2.691346
v 12.656906 1.681934 -3.066294
v 12.184444 1.681934 -3.307025
v 11.660717 1.681934 -3.389976
v 11.660717 1.158206 -3.307025
v 11.660717 0.685744 -3.066294
v 11.660717 0.310797 -2.691346
v 11.660717 0.070066 -2.218885
v 11.660717 -0.012885 -1.695157
v 8.270403 6.767067 3.389976
v 7.746675 6.767067 3.307025
v 7.274214 6.767067 3.066294
v 6.899266 6.767067 2.691346
v 6.658535 6.767067 2.218885
v 6.575584 6.767067 1.695157
v 13.355535 6.767067 1.695157
v 13.272585 6.767067 2.218885
v 13.031853 6.767067 2.691346
v 12.656906 6.767067 3.066294
v 12.184444 6.767067 3.307025
v 11.660717 6.767067 3.389976
v 6.575584 6.767067 -1.695157
v 6.658535 6.767067 -2.218885
v 6.899266 6.767067 -2.691346
v 7.274214 6.767067 -3.066294
v 7.746675 6.767067 -3.307025
v 8.270403 6.767067 -3.389976
v 11.660717 6.767067 -3.389976
v 12.184444 6.767067 -3.307025
v 12.656906 6.767067 -3.066294
v 13.031853 6.767067 -2.691346
v 13.272585 6.767067 -2.218885
v 13.355535 6.767067 -1.695157
v 7.781277 0.134822 2.184283
v 7.315413 0.344069 2.102759
v 6.932537 0.726943 2.102759
v 6.723291 1.192809 2.184283
v 6.932537 1.274332 2.650148
v 7.315413 1.274332 3.033022
v 7.781277 1.192809 3.242269
v 7.862801 0.726943 3.033022
v 7.862801 0.344069 2.650148
v 7.433388 0.470529 2.532172
v 7.058997 0.844919 2.532172
v 7.433388 0.844919 2.906563
v 13.207828 1.192809 2.184283
v 12.998582 0.726943 2.102759
v 12.615707 0.344069 2.102759
v 12.149842 0.134822 2.184283
v 12.068318 0.344069 2.650148
v 12.068318 0.726943 3.033022
v 12.149842 1.192809 3.242269
v 12.615707 1.274332 3.033022
v 12.998582 1.274332 2.650148
v 12.872121 0.844919 2.532172
v 12.497732 0.470529 2.532172
v 12.497732 0.844919 2.906563
v 6.723291 1.192809 -2.184283
v 6.932537 0.726943 -2.102759
v 7.315413 0.344069 -2.102759
v 7.781277 0.134822 -2.184283
v 7.862801 0.344069 -2.650148
v 7.862801 0.726943 -3.033022
v 7.781277 1.192809 -3.242269
v 7.315413 1.274332 -3.033022
v 6.932537 1.274332 -2.650148
v 7.058997 0.844919 -2.532172
v 7.433388 0.470529 -2.532172
v 7.433388 0.844919 -2.906563
v 12.149842 0.134822 -2.184283
v 12.615707 0.344069 -2.102759
v 12.998582 0.726943 -2.102759
v 13.207828 1.192809 -2.184283
v 12.998582 1.274332 -2.650148
v 12.615707 1.274332 -3.033022
v 12.149842 1.192809 -3.242269
v 12.068318 0.726943 -3.033022
v 12.068318 0.344069 -2.650148
v 12.497732 0.470529 -2.532172
v 12.872121 0.844919 -2.532172
v 12.497732 0.844919 -2.906563
vt 0.312506 0.062494
vt 0.312506 0.250000
vt 0.437494 0.062494
vt 0.562506 0.062494
vt 0.562506 0.250000
vt 0.437494 0.812494
vt 0.562506 0.812494
vt 0.437494 0.687506
vt 0.437494 0.500000
vt 0.812506 0.062494
vt 0.812506 0.250000
vt 0.437494 0.250000
vt 0.562506 0.687506
vt 0.562506 0.500000
vt 0.437494 0.937506
vt 0.562506 0.937506
vt 0.687494 0.062494
vt 0.687494 0.250000
vt 0.187494 0.062494
vt 0.187494 0.250000
vt 0.440622 0.860580
vt 0.440913 0.800814
vt 0.319141 0.000000
vt 0.439714 0.750000
vt 0.316002 0.031126
vt 0.337465 0.059338
vt 0.362219 0.058083
vt 0.387065 0.058821
vt 0.412056 0.060517
vt 0.432221 0.042292
vt 0.427462 0.021548
vt 0.474275 0.750000
vt 0.422824 0.000000
vt 0.457238 0.839362
vt 0.684012 0.032811
vt 0.560286 0.750000
vt 0.680859 0.000000
vt 0.559103 0.800899
vt 0.559360 0.860348
vt 0.542791 0.839597
vt 0.577176 0.000000
vt 0.525725 0.750000
vt 0.572540 0.057434
vt 0.567779 0.071940
vt 0.587945 0.093895
vt 0.612943 0.107824
vt 0.637790 0.092802
vt 0.662538 0.076380
vt 0.176588 0.031444
vt 0.388263 0.750000
vt 0.164789 -0.000000
vt 0.405445 0.769669
vt 0.421798 0.790282
vt 0.438079 0.784668
vt 0.438082 0.759764
vt 0.437902 0.736077
vt 0.437720 0.712325
vt 0.417002 0.696065
vt 0.396214 0.704559
vt 0.161665 0.073330
vt 0.375000 0.713335
vt 0.174170 0.067613
vt 0.578437 0.790132
vt 0.594753 0.769433
vt 0.835211 0.000000
vt 0.611737 0.750000
vt 0.824411 0.030461
vt 0.844259 0.049185
vt 0.661665 0.676670
vt 0.875000 0.036665
vt 0.628759 0.679596
vt 0.595748 0.683335
vt 0.564202 0.710597
vt 0.564250 0.734244
vt 0.563523 0.758460
vt 0.562734 0.783941
vt 0.412496 0.250000
vt 0.387499 0.250000
vt 0.362501 0.250000
vt 0.337504 0.250000
vt 0.662496 0.250000
vt 0.637499 0.250000
vt 0.612501 0.250000
vt 0.587504 0.250000
vt 0.281247 0.375000
vt 0.375000 0.500000
vt 0.395831 0.500000
vt 0.416662 0.500000
vt 0.666671 0.416667
vt 0.770835 0.333333
vt 0.875000 0.250000
vt 0.843753 0.250000
vt 0.453472 0.811031
vt 0.449479 0.780897
vt 0.337854 0.000000
vt 0.445951 0.750000
vt 0.337932 0.030990
vt 0.361185 0.034242
vt 0.387034 0.039549
vt 0.410379 0.040342
vt 0.409396 0.019937
vt 0.468037 0.750000
vt 0.404111 0.000000
vt 0.383035 0.000000
vt 0.461012 0.750000
vt 0.358930 0.000000
vt 0.452977 0.750000
vt 0.387818 0.016474
vt 0.662101 0.046090
vt 0.554049 0.750000
vt 0.662146 0.000000
vt 0.550450 0.780234
vt 0.546504 0.810843
vt 0.595889 0.000000
vt 0.531963 0.750000
vt 0.590604 0.178440
vt 0.589633 0.159739
vt 0.612951 0.213961
vt 0.638805 0.083479
vt 0.641070 0.000000
vt 0.547023 0.750000
vt 0.616965 0.000000
vt 0.538988 0.750000
vt 0.612179 0.499439
vt 0.159746 0.033963
vt 0.382025 0.750000
vt 0.146076 -0.000000
vt 0.404041 0.763113
vt 0.421667 0.774765
vt 0.423171 0.757127
vt 0.422363 0.736081
vt 0.419027 0.715707
vt 0.398523 0.719969
vt 0.144421 0.038842
vt 0.375000 0.730579
vt 0.375000 0.750000
vt 0.125000 0.000000
vt 0.404675 0.754658
vt 0.403084 0.736546
vt 0.579339 0.773792
vt 0.596834 0.762518
vt 0.853924 -0.000000
vt 0.617975 0.750000
vt 0.848898 0.025396
vt 0.644421 0.711158
vt 0.875000 0.019421
vt 0.617196 0.704311
vt 0.589058 0.707752
vt 0.581980 0.731805
vt 0.578930 0.754964
vt 0.597444 0.752612
vt 0.625000 0.750000
vt 0.875000 0.000000
vt 0.603329 0.730191
vn 0.999674 0.014555 -0.020963
vn 0.951505 0.307157 -0.017136
vn 0.951505 0.307157 0.017136
vn 0.999674 0.014555 0.020963
vn 0.809476 0.586967 -0.014766
vn 0.809476 0.586967 0.014766
vn 0.586966 0.809477 -0.014766
vn 0.586966 0.809477 0.014766
vn 0.307157 0.951505 -0.017136
vn 0.307157 0.951505 0.017136
vn 0.020864 0.999565 -0.020864
vn 0.020864 0.999565 0.020864
vn 0.020963 0.014555 -0.999674
vn 0.307736 0.011896 -0.951398
vn 0.309017 0.000000 -0.951056
vn 0.021188 0.000000 -0.999775
vn 0.587232 0.010220 -0.809354
vn 0.587785 0.000000 -0.809017
vn 0.809354 0.010220 -0.587233
vn 0.809017 0.000000 -0.587786
vn 0.951398 0.011896 -0.307735
vn 0.951057 0.000000 -0.309017
vn 0.999776 0.000000 -0.021188
vn 0.017136 0.951505 -0.307157
vn -0.017136 0.951504 -0.307157
vn -0.020864 0.999565 -0.020864
vn 0.014766 0.809476 -0.586967
vn -0.014766 0.809476 -0.586967
vn 0.014766 0.586967 -0.809476
vn -0.014766 0.586967 -0.809476
vn 0.017136 0.307157 -0.951505
vn -0.017136 0.307157 -0.951505
vn -0.020963 0.014555 -0.999674
vn -0.307157 0.951505 -0.017136
vn -0.307157 0.951505 0.017136
vn -0.020864 0.999565 0.020864
vn -0.586967 0.809477 -0.014766
vn -0.586966 0.809477 0.014766
vn -0.809476 0.586967 -0.014766
vn -0.809476 0.586967 0.014766
vn -0.951504 0.307157 -0.017136
vn -0.951505 0.307157 0.017136
vn -0.999674 0.014555 -0.020963
vn -0.999674 0.014555 0.020963
vn -0.951397 0.011896 -0.307736
vn -0.951056 0.000000 -0.309018
vn -0.999776 0.000000 -0.021188
vn -0.809354 0.010220 -0.587233
vn -0.809017 0.000000 -0.587785
vn -0.587232 0.010220 -0.809354
vn -0.587785 0.000000 -0.809017
vn -0.307736 0.011896 -0.951398
vn -0.309017 0.000000 -0.951056
vn -0.021188 0.000000 -0.999776
vn 0.020963 0.014555 0.999674
vn 0.017136 0.307157 0.951505
vn -0.017136 0.307157 0.951505
vn -0.020963 0.014555 0.999674
vn 0.014766 0.586967 0.809476
vn -0.014766 0.586967 0.809476
vn 0.014766 0.809476 0.586967
vn -0.014766 0.809476 0.586967
vn 0.017136 0.951505 0.307157
vn -0.017136 0.951504 0.307157
vn 0.951398 0.011896 0.307735
vn 0.951057 0.000000 0.309017
vn 0.999776 0.000000 0.021188
vn 0.809354 0.010220 0.587233
vn 0.809017 0.000000 0.587786
vn 0.587232 0.010220 0.809354
vn 0.587785 0.000000 0.809017
vn 0.307736 0.011896 0.951398
vn 0.309017 0.000000 0.951056
vn 0.021188 0.000000 0.999775
vn -0.307736 0.011896 0.951398
vn -0.309017 0.000000 0.951056
vn -0.021188 0.000000 0.999776
vn -0.587232 0.010220 0.809354
vn -0.587785 0.000000 0.809017
vn -0.809354 0.010220 0.587233
vn -0.809017 0.000000 0.587785
vn -0.951397 0.011896 0.307736
vn -0.951056 0.000000 0.309018
vn -0.999776 0.000000 0.021188
vn 0.280210 0.918131 -0.280210
vn 0.562188 0.786144 -0.256753
vn 0.786144 0.562188 -0.256753
vn 0.918131 0.280210 -0.280210
vn 0.786144 0.256753 -0.562188
vn 0.562188 0.256753 -0.786144
vn 0.280209 0.280210 -0.918131
vn 0.256753 0.562188 -0.786144
vn 0.256753 0.786144 -0.562188
vn 0.491249 0.719270 -0.491249
vn 0.719270 0.491249 -0.491249
vn 0.491249 0.491249 -0.719270
vn -0.918131 0.280210 -0.280210
vn -0.786144 0.562189 -0.256753
vn -0.562188 0.786144 -0.256753
vn -0.280210 0.918131 -0.280210
vn -0.256753 0.786144 -0.562188
vn -0.256753 0.562188 -0.786144
vn -0.280210 0.280210 -0.918131
vn -0.562188 0.256753 -0.786144
vn -0.786144 0.256753 -0.562188
vn -0.719270 0.491249 -0.491249
vn -0.491249 0.719270 -0.491249
vn -0.491249 0.491249 -0.719270
vn 0.918131 0.280210 0.280210
vn 0.786144 0.562188 0.256753
vn 0.562188 0.786144 0.256753
vn 0.280210 0.918131 0.280210
vn 0.256753 0.786144 0.562188
vn 0.256753 0.562188 0.786144
vn 0.280210 0.280210 0.918131
vn 0.562188 0.256753 0.786144
vn 0.786144 0.256753 0.562188
vn 0.719270 0.491249 0.491249
vn 0.491249 0.719270 0.491249
vn 0.491249 0.491249 0.719270
vn -0.280210 0.918131 0.280210
vn -0.562188 0.786144 0.256753
vn -0.786144 0.562188 0.256753
vn -0.918131 0.280210 0.280210
vn -0.786144 0.256753 0.562188
vn -0.562188 0.256753 0.786144
vn -0.280210 0.280210 0.918131
vn -0.256753 0.562188 0.786144
vn -0.256753 0.786144 0.562188
vn -0.491249 0.719270 0.491249
vn -0.719270 0.491249 0.491249
vn -0.491249 0.491249 0.719270
s 1
g pCube2
usemtl initialShadingGroup
f 5/1/1 4/25/2 31/49/3 45/19/4
f 4/25/2 3/23/5 32/51/6 31/49/3
f 3/24/5 2/22/7 33/52/8 32/50/6
f 2/22/7 1/21/9 34/53/10 33/52/8
f 1/21/9 15/15/11 35/6/12 34/53/10
f 10/3/13 9/29/14 62/77/15 61/12/16
f 9/29/14 8/28/17 63/78/18 62/77/15
f 8/28/17 7/27/19 64/79/20 63/78/18
f 7/27/19 6/26/21 65/80/22 64/79/20
f 6/26/21 5/1/1 66/2/23 65/80/22
f 15/15/11 14/34/24 21/40/25 20/16/26
f 14/34/24 13/32/27 22/42/28 21/40/25
f 13/33/27 12/31/29 23/43/30 22/41/28
f 12/31/29 11/30/31 24/44/32 23/43/30
f 11/30/31 10/3/13 25/4/33 24/44/32
f 20/16/26 19/39/34 46/63/35 60/7/36
f 19/39/34 18/38/37 47/64/38 46/63/35
f 18/38/37 17/36/39 48/66/40 47/64/38
f 17/37/39 16/35/41 49/67/42 48/65/40
f 16/35/41 30/17/43 50/10/44 49/67/42
f 30/17/43 29/48/45 68/81/46 67/18/47
f 29/48/45 28/47/48 69/82/49 68/81/46
f 28/47/48 27/46/50 70/83/51 69/82/49
f 27/46/50 26/45/52 71/84/53 70/83/51
f 26/45/52 25/4/33 72/5/54 71/84/53
f 40/8/55 39/57/56 56/73/57 55/13/58
f 39/57/56 38/56/59 57/74/60 56/73/57
f 38/56/59 37/55/61 58/75/62 57/74/60
f 37/55/61 36/54/63 59/76/64 58/75/62
f 36/54/63 35/6/12 60/7/36 59/76/64
f 45/19/4 44/62/65 74/85/66 73/20/67
f 44/62/65 43/60/68 75/86/69 74/85/66
f 43/61/68 42/59/70 76/87/71 75/86/69
f 42/59/70 41/58/72 77/88/73 76/87/71
f 41/58/72 40/8/55 78/9/74 77/88/73
f 55/13/58 54/72/75 80/89/76 79/14/77
f 54/72/75 53/71/78 81/90/79 80/89/76
f 53/71/78 52/69/80 82/91/81 81/90/79
f 52/70/80 51/68/82 83/92/83 82/91/81
f 51/68/82 50/10/44 84/11/84 83/92/83
f 10/3/13 61/12/16 72/5/54 25/4/33
f 78/9/74 40/8/55 55/13/58 79/14/77
f 35/6/12 15/15/11 20/16/26 60/7/36
f 30/17/43 67/18/47 84/11/84 50/10/44
f 45/19/4 73/20/67 66/2/23 5/1/1
f 14/34/24 15/15/11 1/21/9 85/93/85
f 85/93/85 1/21/9 2/22/7 86/94/86
f 86/94/86 2/22/7 3/24/5 87/96/87
f 87/95/87 3/23/5 4/25/2 88/97/88
f 4/25/2 5/1/1 6/26/21 88/97/88
f 88/97/88 6/26/21 7/27/19 89/98/89
f 89/98/89 7/27/19 8/28/17 90/99/90
f 90/99/90 8/28/17 9/29/14 91/100/91
f 9/29/14 10/3/13 11/30/31 91/100/91
f 91/100/91 11/30/31 12/31/29 92/101/92
f 92/101/92 12/31/29 13/33/27 93/103/93
f 93/102/93 13/32/27 14/34/24 85/93/85
f 93/102/93 85/93/85 86/94/86 94/105/94
f 94/105/94 86/94/86 87/96/87 95/107/95
f 87/95/87 88/97/88 89/98/89 95/106/95
f 95/106/95 89/98/89 90/99/90 96/108/96
f 90/99/90 91/100/91 92/101/92 96/108/96
f 96/108/96 92/101/92 93/103/93 94/104/94
f 94/104/94 95/106/95 96/108/96
f 29/48/45 30/17/43 16/35/41 97/109/97
f 97/109/97 16/35/41 17/37/39 98/111/98
f 98/110/98 17/36/39 18/38/37 99/112/99
f 99/112/99 18/38/37 19/39/34 100/113/100
f 19/39/34 20/16/26 21/40/25 100/113/100
f 100/113/100 21/40/25 22/42/28 101/115/101
f 101/114/101 22/41/28 23/43/30 102/116/102
f 102/116/102 23/43/30 24/44/32 103/117/103
f 24/44/32 25/4/33 26/45/52 103/117/103
f 103/117/103 26/45/52 27/46/50 104/118/104
f 104/118/104 27/46/50 28/47/48 105/119/105
f 105/119/105 28/47/48 29/48/45 97/109/97
f 105/119/105 97/109/97 98/111/98 106/120/106
f 106/121/106 98/110/98 99/112/99 107/123/107
f 99/112/99 100/113/100 101/115/101 107/123/107
f 107/122/107 101/114/101 102/116/102 108/124/108
f 102/116/102 103/117/103 104/118/104 108/124/108
f 108/124/108 104/118/104 105/119/105 106/120/106
f 106/120/106 107/122/107 108/124/108
f 44/62/65 45/19/4 31/49/3 109/125/109
f 109/125/109 31/49/3 32/51/6 110/127/110
f 110/126/110 32/50/6 33/52/8 111/128/111
f 111/128/111 33/52/8 34/53/10 112/129/112
f 34/53/10 35/6/12 36/54/63 112/129/112
f 112/129/112 36/54/63 37/55/61 113/130/113
f 113/130/113 37/55/61 38/56/59 114/131/114
f 114/131/114 38/56/59 39/57/56 115/132/115
f 39/57/56 40/8/55 41/58/72 115/132/115
f 115/132/115 41/58/72 42/59/70 116/133/116
f 116/133/116 42/59/70 43/61/68 117/135/117
f 117/134/117 43/60/68 44/62/65 109/125/109
f 117/134/117 109/125/109 110/127/110 118/137/118
f 118/136/118 110/126/110 111/128/111 119/138/119
f 111/128/111 112/129/112 113/130/113 119/138/119
f 119/138/119 113/130/113 114/131/114 120/139/120
f 114/131/114 115/132/115 116/133/116 120/139/120
f 120/139/120 116/133/116 117/135/117 118/136/118
f 118/136/118 119/138/119 120/139/120
f 59/76/64 60/7/36 46/63/35 121/140/121
f 121/140/121 46/63/35 47/64/38 122/141/122
f 122/141/122 47/64/38 48/66/40 123/143/123
f 123/142/123 48/65/40 49/67/42 124/144/124
f 49/67/42 50/10/44 51/68/82 124/144/124
f 124/144/124 51/68/82 52/70/80 125/146/125
f 125/145/125 52/69/80 53/71/78 126/147/126
f 126/147/126 53/71/78 54/72/75 127/148/127
f 54/72/75 55/13/58 56/73/57 127/148/127
f 127/148/127 56/73/57 57/74/60 128/149/128
f 128/149/128 57/74/60 58/75/62 129/150/129
f 129/150/129 58/75/62 59/76/64 121/140/121
f 129/150/129 121/140/121 122/141/122 130/151/130
f 130/151/130 122/141/122 123/143/123 131/152/131
f 123/142/123 124/144/124 125/146/125 131/153/131
f 131/152/131 125/145/125 126/147/126 132/154/132
f 126/147/126 127/148/127 128/149/128 132/154/132
f 132/154/132 128/149/128 129/150/129 130/151/130
f 130/151/130 131/152/131 132/154/132
